<svg width="1024" height="1024" viewBox="0 0 1024 1024" fill="none" xmlns="http://www.w3.org/2000/svg">
<path d="M512.58 766.4C464.58 766.4 421.38 755.6 382.98 734C345.18 711.8 315.18 681.8 292.98 644C271.38 605.6 260.58 562.7 260.58 515.3C260.58 467.3 271.38 424.4 292.98 386.6C315.18 348.2 345.18 318.2 382.98 296.6C421.38 274.4 464.58 263.3 512.58 263.3C560.58 263.3 603.48 274.4 641.28 296.6C679.08 318.2 708.78 348.2 730.38 386.6C752.58 424.4 763.68 467.3 763.68 515.3L741.18 551.3C741.18 592.1 730.98 628.7 710.58 661.1C690.78 693.5 663.78 719.3 629.58 738.5C595.38 757.1 556.38 766.4 512.58 766.4ZM512.58 716C550.38 716 583.98 707.3 613.38 689.9C643.38 671.9 666.78 647.9 683.58 617.9C700.98 587.3 709.68 553.1 709.68 515.3C709.68 476.9 700.98 442.7 683.58 412.7C666.78 382.1 643.38 358.1 613.38 340.7C583.98 322.7 550.38 313.7 512.58 313.7C475.38 313.7 441.78 322.7 411.78 340.7C381.78 358.1 358.08 382.1 340.68 412.7C323.28 442.7 314.58 476.9 314.58 515.3C314.58 553.1 323.28 587.3 340.68 617.9C358.08 647.9 381.78 671.9 411.78 689.9C441.78 707.3 475.38 716 512.58 716ZM736.68 761C728.88 761 722.28 758.6 716.88 753.8C712.08 748.4 709.68 741.8 709.68 734V569.3L726.78 515.3H763.68V734C763.68 741.8 761.28 748.4 756.48 753.8C751.68 758.6 745.08 761 736.68 761Z" fill="#316CB9"/>
</svg>
